<svg width="470" height="188" viewBox="0 0 470 188" fill="none" xmlns="http://www.w3.org/2000/svg">
<g clip-path="url(#clip0_604_9589)">
<path d="M396.569 83.7968L374.649 94.7342L375.026 90.3069L390.333 74.1479L396.569 83.7968Z" fill="#DDD9ED"/>
<path d="M376.089 64.6695L426.241 111.328C428.6 113.521 432.432 112.573 433.497 109.533L469.743 5.94618C470.926 2.56513 467.845 -0.763134 464.383 0.155918L349.585 30.6646C346.19 31.5668 345.119 35.8549 347.689 38.2498L376.086 64.6695" fill="white"/>
<path d="M454.359 14.8486L390.203 77.7881L374.966 94.4798C373.812 95.6388 371.851 94.6501 372.096 93.0352L376.372 64.9165L454.359 14.8486Z" fill="#F7F3FF"/>
<path d="M0.719882 174.692C0.633496 174.692 0.54711 174.678 0.463123 174.644C0.0911836 174.502 -0.0935865 174.085 0.0479905 173.713C0.311948 173.022 0.587903 172.326 0.863859 171.642C1.01263 171.272 1.43257 171.097 1.80211 171.244C2.17165 171.392 2.34922 171.812 2.20044 172.182C1.92689 172.856 1.65573 173.545 1.39417 174.226C1.28379 174.512 1.01023 174.69 0.722282 174.69L0.719882 174.692ZM159.49 174.142C159.476 174.142 159.461 174.142 159.445 174.142C158.458 174.082 157.455 173.979 156.462 173.84C156.068 173.785 155.795 173.42 155.85 173.027C155.905 172.633 156.268 172.359 156.663 172.415C157.619 172.549 158.586 172.647 159.533 172.705C159.929 172.729 160.232 173.072 160.208 173.468C160.184 173.85 159.867 174.145 159.49 174.145V174.142ZM166.826 173.852C166.473 173.852 166.164 173.593 166.113 173.233C166.058 172.839 166.331 172.475 166.725 172.419C167.666 172.288 168.621 172.115 169.564 171.908C169.953 171.824 170.336 172.069 170.42 172.458C170.504 172.847 170.26 173.231 169.871 173.315C168.892 173.528 167.901 173.708 166.922 173.845C166.888 173.85 166.855 173.852 166.821 173.852H166.826ZM149.409 172.17C149.335 172.17 149.261 172.158 149.186 172.134C148.255 171.829 147.31 171.486 146.379 171.116C146.009 170.97 145.829 170.55 145.976 170.181C146.122 169.811 146.539 169.631 146.911 169.778C147.816 170.137 148.733 170.469 149.635 170.764C150.012 170.889 150.218 171.294 150.096 171.671C149.997 171.973 149.714 172.168 149.412 172.168L149.409 172.17ZM176.729 171.124C176.446 171.124 176.177 170.956 176.064 170.677C175.913 170.31 176.088 169.888 176.455 169.737C177.336 169.374 178.226 168.974 179.097 168.549C179.455 168.376 179.887 168.523 180.06 168.88C180.235 169.238 180.086 169.67 179.729 169.842C178.831 170.281 177.914 170.694 177.003 171.069C176.914 171.104 176.82 171.124 176.729 171.124ZM140.015 167.992C139.895 167.992 139.775 167.963 139.665 167.901C138.813 167.426 137.951 166.917 137.102 166.389C136.763 166.18 136.66 165.737 136.869 165.398C137.078 165.06 137.522 164.957 137.86 165.165C138.69 165.681 139.535 166.178 140.368 166.644C140.716 166.838 140.838 167.277 140.644 167.623C140.512 167.858 140.267 167.992 140.015 167.992ZM221.482 166.735C221.086 166.735 220.762 166.413 220.762 166.015C220.762 165.617 221.083 165.295 221.482 165.295C222.442 165.295 223.421 165.271 224.393 165.23C224.786 165.213 225.124 165.521 225.141 165.919C225.158 166.317 224.851 166.653 224.452 166.67C223.459 166.713 222.461 166.735 221.482 166.737V166.735ZM214.139 166.341C214.113 166.341 214.086 166.341 214.06 166.336C213.477 166.272 212.884 166.197 212.301 166.116C211.903 166.061 211.504 166.001 211.108 165.936C210.715 165.873 210.448 165.501 210.513 165.11C210.576 164.717 210.945 164.45 211.339 164.515C211.725 164.578 212.111 164.635 212.5 164.69C213.071 164.77 213.647 164.844 214.218 164.906C214.614 164.949 214.897 165.307 214.854 165.701C214.813 166.068 214.501 166.341 214.139 166.341ZM185.761 166.212C185.531 166.212 185.305 166.101 185.166 165.897C184.943 165.569 185.027 165.12 185.356 164.897C186.145 164.357 186.937 163.786 187.71 163.195C188.026 162.953 188.478 163.013 188.72 163.33C188.962 163.647 188.902 164.098 188.586 164.34C187.794 164.945 186.98 165.533 186.169 166.087C186.044 166.171 185.903 166.212 185.764 166.212H185.761ZM231.745 166.005C231.39 166.005 231.083 165.744 231.032 165.384C230.979 164.99 231.255 164.628 231.649 164.573C232.597 164.443 233.566 164.294 234.533 164.131C234.927 164.066 235.296 164.328 235.364 164.722C235.431 165.113 235.167 165.485 234.776 165.552C233.792 165.72 232.806 165.871 231.843 166.001C231.81 166.005 231.779 166.008 231.745 166.008V166.005ZM4.50407 165.912C4.39849 165.912 4.2929 165.888 4.19212 165.84C3.83458 165.667 3.6834 165.237 3.85617 164.877C4.28571 163.987 4.73203 163.097 5.18076 162.228C5.36313 161.876 5.79746 161.736 6.1502 161.921C6.50295 162.104 6.64212 162.538 6.45735 162.891C6.01343 163.747 5.5743 164.626 5.15196 165.504C5.02718 165.761 4.77043 165.912 4.50407 165.912ZM204.056 164.311C203.989 164.311 203.919 164.302 203.852 164.282C202.906 164.002 201.951 163.694 201.018 163.366C200.644 163.234 200.444 162.823 200.576 162.449C200.708 162.075 201.119 161.876 201.493 162.008C202.405 162.327 203.336 162.629 204.26 162.9C204.641 163.013 204.86 163.414 204.747 163.795C204.653 164.107 204.368 164.311 204.056 164.311ZM241.854 164.059C241.531 164.059 241.235 163.838 241.156 163.51C241.063 163.123 241.298 162.735 241.684 162.639C242.608 162.413 243.561 162.168 244.516 161.909C244.9 161.806 245.296 162.032 245.399 162.416C245.502 162.799 245.276 163.195 244.892 163.299C243.925 163.56 242.961 163.81 242.025 164.038C241.967 164.052 241.91 164.059 241.854 164.059ZM131.427 162.322C131.276 162.322 131.122 162.274 130.992 162.176C130.222 161.592 129.437 160.976 128.658 160.345C128.348 160.095 128.3 159.642 128.55 159.332C128.799 159.022 129.253 158.974 129.562 159.224C130.33 159.846 131.103 160.45 131.861 161.026C132.178 161.266 132.24 161.717 132 162.034C131.859 162.221 131.643 162.32 131.427 162.32V162.322ZM251.75 161.211C251.448 161.211 251.165 161.019 251.067 160.714C250.944 160.335 251.148 159.929 251.527 159.807C252.43 159.512 253.363 159.198 254.304 158.871C254.68 158.742 255.091 158.941 255.22 159.315C255.35 159.69 255.151 160.1 254.776 160.232C253.829 160.561 252.885 160.877 251.976 161.175C251.902 161.199 251.827 161.211 251.753 161.211H251.75ZM194.479 160.551C194.371 160.551 194.263 160.527 194.16 160.477C193.274 160.037 192.386 159.572 191.525 159.09C191.177 158.895 191.052 158.459 191.247 158.111C191.441 157.763 191.878 157.638 192.226 157.832C192.557 158.017 192.893 158.199 193.229 158.379C193.898 157.715 194.561 157.028 195.199 156.332C195.468 156.04 195.924 156.021 196.216 156.289C196.509 156.558 196.528 157.014 196.259 157.307C195.712 157.904 195.146 158.497 194.573 159.073C194.647 159.111 194.724 159.147 194.798 159.186C195.156 159.363 195.3 159.795 195.124 160.15C195 160.405 194.743 160.551 194.479 160.551ZM261.445 157.736C261.155 157.736 260.883 157.561 260.773 157.276C260.629 156.904 260.814 156.488 261.186 156.344C262.1 155.992 263.012 155.634 263.919 155.274C264.288 155.125 264.706 155.308 264.855 155.677C265.001 156.047 264.821 156.464 264.452 156.613C263.54 156.976 262.623 157.336 261.704 157.691C261.62 157.724 261.531 157.739 261.445 157.739V157.736ZM9.44487 156.884C9.31529 156.884 9.18571 156.851 9.06573 156.776C8.72739 156.568 8.6242 156.124 8.83297 155.785C9.35609 154.941 9.8936 154.103 10.4359 153.292C10.6567 152.961 11.103 152.872 11.4341 153.093C11.7653 153.314 11.8541 153.76 11.6333 154.091C11.1006 154.89 10.5703 155.716 10.0568 156.546C9.91999 156.767 9.68483 156.887 9.44487 156.887V156.884ZM123.546 155.692C123.374 155.692 123.198 155.629 123.062 155.502C122.371 154.871 121.663 154.214 120.897 153.496C120.607 153.225 120.592 152.769 120.866 152.479C121.137 152.188 121.593 152.174 121.883 152.448C122.644 153.163 123.347 153.813 124.034 154.442C124.326 154.71 124.348 155.164 124.079 155.459C123.938 155.615 123.743 155.694 123.546 155.694V155.692ZM185.682 155.219C185.536 155.219 185.387 155.173 185.257 155.08C184.458 154.497 183.664 153.887 182.896 153.266C182.586 153.016 182.538 152.563 182.788 152.253C183.038 151.944 183.491 151.896 183.801 152.145C184.552 152.752 185.327 153.347 186.107 153.916C186.428 154.151 186.498 154.6 186.265 154.922C186.123 155.116 185.905 155.217 185.682 155.217V155.219ZM270.993 153.875C270.712 153.875 270.443 153.71 270.328 153.434C270.175 153.067 270.347 152.644 270.715 152.491C271.617 152.112 272.519 151.732 273.421 151.348C273.788 151.193 274.211 151.363 274.367 151.728C274.523 152.092 274.352 152.517 273.988 152.673C273.085 153.059 272.178 153.441 271.274 153.82C271.183 153.858 271.089 153.875 270.995 153.875H270.993ZM200.372 151.843C200.226 151.843 200.08 151.8 199.95 151.706C199.629 151.473 199.557 151.022 199.789 150.701C200.353 149.923 200.908 149.117 201.44 148.306C201.659 147.975 202.105 147.881 202.436 148.099C202.767 148.318 202.861 148.764 202.642 149.095C202.098 149.926 201.529 150.749 200.953 151.545C200.812 151.74 200.593 151.843 200.37 151.843H200.372ZM280.447 149.794C280.171 149.794 279.908 149.635 279.79 149.366C279.629 149.004 279.79 148.577 280.155 148.416C281.05 148.018 281.942 147.617 282.835 147.214C283.197 147.051 283.625 147.212 283.788 147.574C283.951 147.936 283.79 148.363 283.428 148.527C282.533 148.932 281.638 149.333 280.738 149.731C280.642 149.774 280.543 149.794 280.445 149.794H280.447ZM116.074 148.608C115.894 148.608 115.714 148.541 115.575 148.407C114.869 147.725 114.164 147.046 113.456 146.367C113.168 146.091 113.159 145.635 113.434 145.349C113.71 145.062 114.166 145.054 114.452 145.328C115.16 146.007 115.868 146.688 116.573 147.37C116.859 147.646 116.868 148.102 116.592 148.387C116.451 148.534 116.264 148.608 116.074 148.608ZM15.3719 148.476C15.2135 148.476 15.0552 148.423 14.9208 148.318C14.6112 148.068 14.5608 147.615 14.8104 147.305C15.4295 146.535 16.0702 145.767 16.7133 145.026C16.9749 144.726 17.4284 144.692 17.7283 144.954C18.0283 145.213 18.0619 145.669 17.8003 145.969C17.1692 146.696 16.5405 147.449 15.9334 148.205C15.7918 148.383 15.5831 148.474 15.3719 148.474V148.476ZM177.929 148.457C177.739 148.457 177.552 148.383 177.411 148.236C176.722 147.521 176.048 146.78 175.402 146.036C175.143 145.736 175.174 145.28 175.474 145.021C175.774 144.762 176.23 144.793 176.489 145.093C177.118 145.82 177.778 146.542 178.447 147.238C178.723 147.524 178.714 147.979 178.428 148.255C178.289 148.39 178.109 148.457 177.929 148.457ZM289.811 145.508C289.54 145.508 289.283 145.354 289.158 145.095C288.988 144.735 289.144 144.306 289.504 144.138C290.389 143.72 291.274 143.3 292.158 142.878C292.517 142.705 292.947 142.859 293.117 143.216C293.288 143.574 293.137 144.006 292.779 144.176C291.894 144.601 291.006 145.021 290.118 145.441C290.02 145.486 289.914 145.51 289.811 145.51V145.508ZM205.726 143.06C205.616 143.06 205.505 143.036 205.4 142.981C205.044 142.801 204.903 142.369 205.083 142.014C205.52 141.153 205.944 140.272 206.343 139.391C206.506 139.029 206.933 138.868 207.295 139.034C207.658 139.197 207.818 139.624 207.653 139.986C207.245 140.886 206.811 141.788 206.364 142.667C206.237 142.916 205.985 143.06 205.721 143.06H205.726ZM108.582 141.539C108.41 141.539 108.237 141.476 108.1 141.352C107.354 140.675 106.617 140.022 105.909 139.408C105.609 139.146 105.578 138.693 105.837 138.393C106.099 138.093 106.552 138.062 106.852 138.321C107.565 138.94 108.311 139.6 109.065 140.284C109.36 140.55 109.382 141.006 109.115 141.301C108.974 141.457 108.777 141.539 108.58 141.539H108.582ZM299.08 141.018C298.816 141.018 298.562 140.872 298.435 140.62C298.257 140.265 298.404 139.833 298.759 139.655C299.635 139.218 300.511 138.779 301.384 138.338C301.739 138.158 302.171 138.299 302.351 138.655C302.531 139.01 302.387 139.442 302.034 139.622C301.159 140.066 300.28 140.505 299.4 140.944C299.296 140.994 299.186 141.021 299.08 141.021V141.018ZM22.3428 140.913C22.1508 140.913 21.9588 140.836 21.8173 140.687C21.5437 140.397 21.5581 139.941 21.8485 139.67C22.5707 138.99 23.3122 138.321 24.0561 137.68C24.3561 137.421 24.812 137.455 25.0711 137.755C25.3303 138.055 25.2967 138.511 24.9968 138.77C24.2697 139.396 23.5426 140.054 22.8347 140.718C22.6955 140.848 22.518 140.913 22.3404 140.913H22.3428ZM171.515 140.418C171.28 140.418 171.049 140.303 170.912 140.092C170.368 139.259 169.842 138.405 169.35 137.551C169.151 137.205 169.269 136.766 169.614 136.567C169.957 136.368 170.399 136.488 170.598 136.831C171.078 137.661 171.589 138.494 172.117 139.302C172.335 139.636 172.242 140.082 171.908 140.298C171.786 140.377 171.649 140.416 171.515 140.416V140.418ZM308.247 136.329C307.988 136.329 307.738 136.19 307.609 135.943C307.424 135.59 307.558 135.156 307.911 134.971C308.777 134.515 309.643 134.057 310.507 133.596C310.86 133.409 311.294 133.543 311.482 133.894C311.669 134.244 311.537 134.681 311.184 134.868C310.318 135.331 309.449 135.789 308.58 136.245C308.475 136.301 308.36 136.327 308.247 136.327V136.329ZM100.673 134.952C100.522 134.952 100.371 134.904 100.241 134.808C99.4519 134.215 98.6553 133.642 97.8778 133.102C97.5514 132.876 97.4698 132.428 97.6978 132.101C97.9234 131.775 98.3721 131.693 98.6984 131.921C99.4903 132.471 100.299 133.056 101.105 133.659C101.424 133.896 101.487 134.35 101.249 134.666C101.108 134.856 100.892 134.954 100.673 134.954V134.952ZM30.3479 134.455C30.1175 134.455 29.892 134.345 29.7528 134.143C29.5272 133.815 29.6112 133.368 29.94 133.143C30.7582 132.584 31.5957 132.036 32.4308 131.518C32.7691 131.309 33.213 131.413 33.4218 131.751C33.6306 132.089 33.5274 132.533 33.189 132.742C32.3732 133.248 31.5525 133.781 30.7534 134.33C30.6286 134.417 30.4871 134.458 30.3479 134.458V134.455ZM209.671 133.555C209.597 133.555 209.52 133.543 209.445 133.519C209.069 133.395 208.862 132.989 208.987 132.61C209.289 131.693 209.575 130.757 209.836 129.826C209.944 129.445 210.34 129.222 210.724 129.33C211.106 129.438 211.329 129.836 211.221 130.218C210.952 131.168 210.662 132.125 210.352 133.061C210.252 133.363 209.971 133.555 209.668 133.555H209.671ZM317.313 131.441C317.058 131.441 316.814 131.307 316.682 131.069C316.49 130.721 316.614 130.282 316.962 130.09C317.819 129.615 318.673 129.14 319.527 128.66C319.873 128.463 320.312 128.588 320.507 128.936C320.701 129.284 320.579 129.721 320.231 129.915C319.374 130.395 318.517 130.875 317.658 131.35C317.548 131.41 317.428 131.441 317.31 131.441H317.313ZM166.763 131.3C166.478 131.3 166.207 131.129 166.094 130.846C165.724 129.925 165.379 128.984 165.065 128.046C164.937 127.669 165.141 127.261 165.518 127.134C165.897 127.007 166.303 127.211 166.43 127.588C166.737 128.499 167.073 129.416 167.433 130.311C167.582 130.681 167.402 131.101 167.032 131.247C166.943 131.283 166.855 131.3 166.766 131.3H166.763ZM91.9771 129.464C91.8691 129.464 91.7612 129.44 91.658 129.39C90.8037 128.967 89.9159 128.559 89.0208 128.18C88.6537 128.024 88.4833 127.602 88.6393 127.237C88.7952 126.872 89.2176 126.7 89.5823 126.856C90.5038 127.247 91.4156 127.664 92.2939 128.101C92.6514 128.276 92.7954 128.708 92.6202 129.066C92.4954 129.32 92.2387 129.466 91.9747 129.466L91.9771 129.464ZM39.2768 129.354C39.0057 129.354 38.7465 129.2 38.6242 128.939C38.4562 128.579 38.6122 128.149 38.9721 127.981C39.8671 127.564 40.7838 127.163 41.6981 126.788C42.0652 126.637 42.4875 126.815 42.6363 127.182C42.7851 127.549 42.6099 127.971 42.2428 128.12C41.3501 128.485 40.4551 128.879 39.5792 129.286C39.4808 129.332 39.3776 129.354 39.2744 129.354H39.2768ZM326.268 126.357C326.021 126.357 325.779 126.229 325.647 125.999C325.447 125.656 325.563 125.214 325.906 125.015C326.753 124.523 327.597 124.027 328.44 123.53C328.783 123.328 329.224 123.441 329.426 123.784C329.627 124.127 329.515 124.569 329.172 124.77C328.327 125.27 327.48 125.766 326.63 126.261C326.515 126.328 326.39 126.359 326.268 126.359V126.357ZM82.3619 125.819C82.2971 125.819 82.2323 125.809 82.1675 125.793C81.2413 125.536 80.2934 125.296 79.348 125.082C78.9592 124.994 78.7169 124.61 78.8057 124.221C78.8944 123.832 79.2784 123.59 79.6671 123.679C80.6342 123.897 81.606 124.142 82.5538 124.406C82.9378 124.511 83.1609 124.91 83.0554 125.291C82.9666 125.61 82.6762 125.819 82.3619 125.819ZM48.9257 125.8C48.6089 125.8 48.321 125.591 48.2322 125.272C48.1266 124.888 48.3522 124.492 48.7337 124.386C49.684 124.125 50.6534 123.88 51.6204 123.664C52.0068 123.578 52.3931 123.82 52.4819 124.209C52.5683 124.598 52.3259 124.982 51.9372 125.07C50.9942 125.284 50.0439 125.521 49.1177 125.776C49.0529 125.793 48.9881 125.802 48.9257 125.802V125.8ZM72.2523 123.907C72.2259 123.907 72.2019 123.907 72.1755 123.902C71.2157 123.801 70.2414 123.722 69.2768 123.664C68.8809 123.64 68.5761 123.299 68.6001 122.903C68.6241 122.508 68.9648 122.208 69.3608 122.227C70.347 122.284 71.3453 122.366 72.3267 122.469C72.7226 122.51 73.0082 122.865 72.9674 123.261C72.929 123.631 72.6171 123.907 72.2523 123.907ZM59.0328 123.897C58.6681 123.897 58.3562 123.621 58.3178 123.251C58.277 122.856 58.5649 122.503 58.9585 122.462C59.9423 122.359 60.9381 122.28 61.9244 122.222C62.3203 122.203 62.6611 122.503 62.6851 122.899C62.7091 123.295 62.4043 123.635 62.0084 123.659C61.0461 123.715 60.0695 123.794 59.1096 123.892C59.0832 123.895 59.0592 123.897 59.0353 123.897H59.0328ZM212.142 123.568C212.102 123.568 212.063 123.566 212.023 123.559C211.631 123.491 211.367 123.119 211.432 122.728C211.593 121.776 211.737 120.809 211.857 119.849C211.907 119.455 212.267 119.177 212.661 119.225C213.054 119.275 213.335 119.635 213.285 120.029C213.162 121.008 213.016 121.999 212.85 122.971C212.79 123.321 212.486 123.571 212.142 123.571V123.568ZM163.886 121.428C163.548 121.428 163.246 121.188 163.181 120.842C162.996 119.87 162.835 118.879 162.703 117.9C162.65 117.507 162.926 117.144 163.32 117.092C163.716 117.041 164.076 117.315 164.129 117.708C164.256 118.663 164.412 119.628 164.592 120.573C164.666 120.965 164.409 121.341 164.018 121.416C163.973 121.425 163.927 121.428 163.884 121.428H163.886ZM335.108 121.075C334.866 121.075 334.628 120.953 334.494 120.732C334.285 120.394 334.393 119.95 334.731 119.743C335.566 119.232 336.399 118.719 337.232 118.203C337.57 117.994 338.014 118.097 338.223 118.435C338.432 118.774 338.328 119.218 337.99 119.426C337.155 119.945 336.32 120.461 335.483 120.972C335.365 121.044 335.235 121.077 335.108 121.077V121.075ZM343.833 115.604C343.596 115.604 343.365 115.486 343.226 115.273C343.01 114.939 343.108 114.493 343.442 114.277C344.265 113.747 345.088 113.216 345.909 112.681C346.242 112.465 346.689 112.559 346.905 112.892C347.121 113.226 347.027 113.672 346.694 113.888C345.87 114.423 345.045 114.958 344.22 115.489C344.1 115.565 343.965 115.604 343.831 115.604H343.833ZM213.093 113.324C213.093 113.324 213.083 113.324 213.081 113.324C212.682 113.317 212.366 112.991 212.373 112.592C212.38 112.216 212.382 111.836 212.382 111.46C212.382 110.869 212.375 110.272 212.358 109.682C212.349 109.283 212.661 108.952 213.059 108.943C213.462 108.926 213.786 109.245 213.798 109.643C213.815 110.246 213.822 110.855 213.822 111.46C213.822 111.846 213.82 112.232 213.813 112.619C213.805 113.012 213.484 113.327 213.093 113.327V113.324ZM162.929 111.189C162.531 111.189 162.209 110.867 162.209 110.469C162.209 109.48 162.235 108.477 162.288 107.488C162.31 107.09 162.655 106.788 163.046 106.807C163.442 106.828 163.747 107.167 163.728 107.565C163.678 108.527 163.651 109.504 163.651 110.469C163.651 110.867 163.33 111.189 162.931 111.189H162.929ZM352.433 109.938C352.203 109.938 351.975 109.828 351.836 109.622C351.613 109.293 351.702 108.844 352.03 108.621C352.841 108.074 353.652 107.524 354.461 106.97C354.79 106.747 355.239 106.831 355.462 107.157C355.687 107.486 355.601 107.932 355.275 108.158C354.463 108.712 353.652 109.264 352.837 109.814C352.714 109.898 352.573 109.936 352.436 109.936L352.433 109.938ZM360.906 104.086C360.681 104.086 360.458 103.98 360.319 103.781C360.088 103.457 360.165 103.006 360.491 102.778C361.29 102.212 362.089 101.645 362.884 101.074C363.208 100.844 363.656 100.916 363.889 101.24C364.122 101.564 364.048 102.012 363.724 102.245C362.924 102.816 362.125 103.387 361.324 103.954C361.197 104.043 361.053 104.086 360.909 104.086H360.906ZM212.476 103.054C212.123 103.054 211.814 102.792 211.763 102.432C211.629 101.473 211.473 100.506 211.3 99.5601C211.228 99.1689 211.487 98.7946 211.879 98.7202C212.267 98.6482 212.644 98.905 212.718 99.2985C212.896 100.266 213.057 101.252 213.194 102.236C213.249 102.629 212.973 102.994 212.579 103.047C212.546 103.052 212.512 103.054 212.478 103.054H212.476ZM163.891 100.949C163.846 100.949 163.802 100.945 163.757 100.937C163.366 100.863 163.109 100.486 163.183 100.095C163.368 99.1209 163.582 98.1419 163.817 97.1821C163.913 96.7957 164.301 96.5582 164.688 96.6541C165.074 96.7501 165.309 97.1389 165.216 97.5252C164.985 98.4587 164.779 99.4137 164.599 100.362C164.534 100.707 164.232 100.947 163.893 100.947L163.891 100.949ZM210.259 93.0067C209.952 93.0067 209.666 92.8076 209.57 92.498C209.285 91.5718 208.975 90.6431 208.651 89.7385C208.517 89.3641 208.711 88.9514 209.085 88.817C209.46 88.6826 209.872 88.877 210.007 89.2513C210.34 90.1752 210.657 91.1254 210.947 92.0757C211.065 92.4548 210.852 92.858 210.47 92.9755C210.4 92.9971 210.328 93.0067 210.259 93.0067ZM166.756 91.075C166.667 91.075 166.576 91.0582 166.49 91.0246C166.12 90.8783 165.94 90.4583 166.087 90.0888C166.454 89.1673 166.85 88.2459 167.267 87.3508C167.435 86.9909 167.862 86.8349 168.225 87.0005C168.585 87.1685 168.741 87.5956 168.575 87.9579C168.17 88.829 167.783 89.7265 167.426 90.6215C167.313 90.9023 167.042 91.075 166.756 91.075ZM206.381 83.4827C206.124 83.4827 205.877 83.3459 205.748 83.1059C205.282 82.2445 204.788 81.407 204.279 80.6223C204.063 80.2888 204.157 79.8425 204.49 79.6265C204.824 79.4105 205.27 79.5041 205.486 79.8377C206.016 80.6559 206.53 81.5246 207.015 82.4196C207.204 82.77 207.072 83.2067 206.724 83.3963C206.616 83.4563 206.499 83.4827 206.383 83.4827H206.381ZM171.527 81.9709C171.385 81.9709 171.243 81.9301 171.116 81.8437C170.79 81.6182 170.708 81.1694 170.934 80.8431C171.507 80.0152 172.117 79.209 172.743 78.4483C172.995 78.1411 173.449 78.0979 173.756 78.3499C174.063 78.6019 174.106 79.0554 173.854 79.3625C173.252 80.092 172.666 80.8671 172.117 81.6614C171.978 81.8629 171.752 81.9709 171.524 81.9709H171.527ZM200.161 75.336C199.991 75.336 199.82 75.276 199.681 75.1536C198.957 74.5081 198.203 73.925 197.44 73.4211C197.109 73.2027 197.015 72.7564 197.236 72.4229C197.454 72.0917 197.901 71.9981 198.234 72.2189C199.055 72.7612 199.866 73.3875 200.644 74.081C200.941 74.3449 200.965 74.8009 200.701 75.0984C200.56 75.2568 200.363 75.3384 200.164 75.3384L200.161 75.336ZM178.615 74.5585C178.392 74.5585 178.174 74.4553 178.032 74.261C177.799 73.9394 177.869 73.4883 178.193 73.2555C179.033 72.646 179.894 72.1013 180.758 71.6334C181.108 71.4438 181.545 71.5734 181.735 71.9237C181.924 72.2741 181.795 72.7108 181.444 72.9004C180.636 73.3371 179.827 73.8506 179.04 74.4217C178.913 74.5153 178.764 74.5585 178.618 74.5585H178.615ZM191.021 70.9591C190.99 70.9591 190.961 70.9591 190.93 70.9543C190.86 70.9447 190.793 70.9375 190.724 70.9303C189.865 70.8343 188.993 70.8151 188.134 70.8751C187.736 70.8991 187.395 70.604 187.367 70.2056C187.34 69.8097 187.638 69.4665 188.036 69.4377C188.981 69.3729 189.941 69.3921 190.884 69.4977C190.961 69.5073 191.036 69.5145 191.112 69.5241C191.506 69.5745 191.787 69.9345 191.736 70.328C191.691 70.6927 191.381 70.9567 191.024 70.9567L191.021 70.9591Z" fill="#DDD9ED"/>
<path opacity="0.1" d="M409.813 187.146C430.487 187.146 447.247 184.739 447.247 181.771C447.247 178.802 430.487 176.396 409.813 176.396C389.139 176.396 372.379 178.802 372.379 181.771C372.379 184.739 389.139 187.146 409.813 187.146Z" fill="#080317"/>
</g>
<defs>
<clipPath id="clip0_604_9589">
<rect width="470" height="187.146" fill="white"/>
</clipPath>
</defs>
</svg>
